<svg width="69" height="69" viewBox="0 0 69 69" fill="none" xmlns="http://www.w3.org/2000/svg">
<g clip-path="url(#clip0_2_276)">
<path d="M44.85 36.1342L30.2329 50.7513C29.5066 51.4776 28.4171 51.4776 27.6908 50.7513C26.9645 50.025 26.9645 48.9355 27.6908 48.2092L41.0368 34.8632L26.9645 20.7908C26.2382 20.0645 26.2382 18.975 26.9645 18.2487C27.6908 17.5224 28.7803 17.5224 29.5066 18.2487L44.85 33.5921C45.5763 34.3184 45.5763 35.4079 44.85 36.1342ZM69 34.5C69 53.5658 53.5658 69 34.5 69C15.4342 69 0 53.5658 0 34.5C0 15.4342 15.4342 0 34.5 0C53.5658 0 69 15.4342 69 34.5ZM65.3684 34.5C65.3684 17.4316 51.5684 3.63158 34.5 3.63158C17.4316 3.63158 3.63158 17.4316 3.63158 34.5C3.63158 51.5684 17.4316 65.3684 34.5 65.3684C51.5684 65.3684 65.3684 51.5684 65.3684 34.5Z" fill="#293229" fill-opacity="0.3"/>
</g>
<defs>
<clipPath id="clip0_2_276">
<rect width="69" height="69" fill="white"/>
</clipPath>
</defs>
</svg>
