<svg width="59" height="59" viewBox="0 0 59 59" fill="none" xmlns="http://www.w3.org/2000/svg">
<g clip-path="url(#clip0_4_368)">
<path d="M56.05 22.125L51.9938 21.3875C51.625 20.65 51.625 19.9125 51.2562 19.175L53.4688 15.8563L55.3125 13.275L45.725 3.6875L43.1437 5.53125L39.825 7.74375C39.0875 7.375 38.35 7.375 37.6125 7.00625L36.875 2.95L36.1375 0H22.8625L22.125 2.95L21.3875 7.00625C20.65 7.375 19.9125 7.375 19.175 7.74375L15.8563 5.53125L13.275 4.05625L4.05625 13.275L5.9 15.8563L8.1125 19.175C7.375 19.9125 7.375 20.65 7.00625 21.3875L2.95 22.125L0 22.8625V36.1375L2.95 36.875L7.00625 37.6125C7.375 38.35 7.375 39.0875 7.74375 39.825L5.53125 43.1437L3.6875 45.725L13.275 55.3125L15.8563 53.4688L19.175 51.2562C19.9125 51.625 20.65 51.625 21.3875 51.9938L22.125 56.05L22.8625 59H36.1375L36.875 56.05L37.6125 51.9938C38.35 51.625 39.0875 51.625 39.825 51.2562L43.1437 53.4688L45.725 55.3125L55.3125 45.725L53.4688 43.1437L51.2562 39.825C51.625 39.0875 51.9938 38.35 51.9938 37.6125L56.05 36.875L59 36.1375V22.8625L56.05 22.125ZM55.3125 33.1875L49.0438 34.2938C48.675 36.1375 47.9375 37.9813 46.8312 39.825L50.15 44.9875L44.9875 50.15L39.825 46.8312C37.9813 47.9375 36.1375 48.675 34.2938 49.0438L33.1875 55.3125H25.8125L24.7062 49.0438C22.8625 48.675 21.0187 47.9375 19.175 46.8312L14.0125 50.15L8.85 44.9875L12.1687 39.825C11.0625 37.9813 10.325 36.1375 9.95625 34.2938L3.6875 33.1875V25.8125L9.95625 24.7062C10.325 22.8625 11.0625 21.0187 12.1687 19.175L8.48125 14.0125L13.6438 8.85L18.8062 12.1687C20.65 11.0625 22.4937 10.325 24.3375 9.95625L25.8125 3.6875H33.1875L34.2938 9.95625C36.1375 10.325 37.9813 11.0625 39.825 12.1687L44.9875 8.85L50.15 14.0125L46.8312 19.175C47.9375 21.0187 48.675 22.8625 49.0438 24.7062L55.3125 25.8125V33.1875Z" fill="#444444"/>
<path d="M29.5 16.5938C22.4938 16.5938 16.5938 22.4938 16.5938 29.5C16.5938 36.5063 22.4938 42.4062 29.5 42.4062C36.5063 42.4062 42.4062 36.5063 42.4062 29.5C42.4062 22.4938 36.5063 16.5938 29.5 16.5938ZM29.5 38.7188C24.3375 38.7188 20.2812 34.6625 20.2812 29.5C20.2812 24.3375 24.3375 20.2812 29.5 20.2812C34.6625 20.2812 38.7188 24.3375 38.7188 29.5C38.7188 34.6625 34.6625 38.7188 29.5 38.7188Z" fill="#444444"/>
</g>
<defs>
<clipPath id="clip0_4_368">
<rect width="59" height="59" fill="white"/>
</clipPath>
</defs>
</svg>
