<svg width="50" height="31" viewBox="0 0 50 31" fill="none" xmlns="http://www.w3.org/2000/svg">
<path d="M37.5 22.3499C34.125 22.3499 32 23.4249 30.125 24.3499C28.5 25.1499 27.175 25.8499 25 25.8499C22.75 25.8499 21.5 25.2249 19.875 24.3499C18 23.3999 15.95 22.3499 12.5 22.3499C9.05 22.3499 7 23.4249 5.125 24.3499C3.5 25.1499 2.2 25.8499 0 25.8499V30.7249C3.375 30.7249 5.5 29.6499 7.375 28.7249C9 27.8499 10.25 27.2249 12.5 27.2249C14.75 27.2249 16 27.8499 17.625 28.7249C19.5 29.6749 21.55 30.7249 25 30.7249C28.45 30.7249 30.5 29.6499 32.375 28.7249C34 27.8499 35.25 27.2249 37.5 27.2249C39.75 27.2249 41 27.8499 42.625 28.7249C44.5 29.6749 46.575 30.7249 50 30.7249V25.8499C47.75 25.8499 46.5 25.2249 44.875 24.3499C43 23.3999 40.875 22.3499 37.5 22.3499ZM44.875 2.1499C43 1.1999 40.925 0.149902 37.5 0.149902C34.075 0.149902 32 1.1999 30.125 2.1499C28.5 2.9499 27.175 3.6499 25 3.6499C22.75 3.6499 21.5 3.0249 19.875 2.1499C18 1.2249 15.95 0.149902 12.5 0.149902C9.05 0.149902 7 1.1999 5.125 2.1499C3.5 2.9749 2.2 3.6499 0 3.6499V8.4749C3.375 8.4749 5.5 7.3999 7.375 6.4749C9 5.6499 10.3 4.9749 12.5 4.9749C14.7 4.9749 16 5.5999 17.625 6.4749C19.5 7.4249 21.55 8.4749 25 8.4749C28.45 8.4749 30.5 7.3999 32.375 6.4749C34 5.6749 35.325 4.9749 37.5 4.9749C39.75 4.9749 41 5.5999 42.625 6.4749C44.5 7.4249 46.575 8.4749 50 8.4749V3.5999C47.75 3.5999 46.5 2.9749 44.875 2.1499ZM37.5 11.2249C34.125 11.2249 32 12.2999 30.125 13.2249C28.5 14.0999 27.25 14.7249 25 14.7249C22.75 14.7249 21.5 14.0999 19.875 13.2249C18 12.2749 15.95 11.2249 12.5 11.2249C9.05 11.2249 7 12.2999 5.125 13.2249C3.5 14.0999 2.25 14.7249 0 14.7249V19.5999C3.375 19.5999 5.5 18.5249 7.375 17.5999C9 16.7999 10.325 16.0999 12.5 16.0999C14.675 16.0999 16 16.7249 17.625 17.5999C19.5 18.5499 21.55 19.5999 25 19.5999C28.45 19.5999 30.5 18.5249 32.375 17.5999C34 16.7999 35.325 16.0999 37.5 16.0999C39.75 16.0999 41 16.7249 42.625 17.5999C44.5 18.5499 46.575 19.5999 50 19.5999V14.7249C47.75 14.7249 46.5 14.0999 44.875 13.2249C43 12.2749 40.875 11.2249 37.5 11.2249Z" fill="#293229"/>
</svg>
